# AST/ASF file generated using VICON BodyLanguage
# -----------------------------------------------
:version 1.10
:name VICON
:units
  mass 1.0
  length 0.45
  angle deg
:documentation
   .ast/.asf automatically generated from VICON data using
   VICON BodyBuilder and BodyLanguage model FoxedUp or BRILLIANT.MOD
:root
   order TX TY TZ RX RY RZ
   axis XYZ
   position 0 0 0  
   orientation 0 0 0 
:bonedata
  begin
     id 1 
     name lhipjoint
     direction 0.822369 -0.411937 0.392449 
     length 3.8167 
     axis 0 0 0  XYZ
  end
  begin
     id 2 
     name lfemur
     direction 0.34202 -0.939693 0  
     length 6.16791  
     axis 0 0 20  XYZ
    dof rx ry rz
    limits (-160.0 20.0)
           (-70.0 70.0)
           (-60.0 70.0)
  end
  begin
     id 3 
     name ltibia
     direction 0.34202 -0.939693 0   
     length 7.07101   
     axis 0 0 20   XYZ
    dof rx
    limits (-10.0 170.0)
  end
  begin
     id 4 
     name lfoot
     direction 0.028254 -0.0776273 0.996582   
     length 1.66799   
     axis -90 7.62852e-016 20   XYZ
    dof rx rz
    limits (-45.0 90.0)
           (-70.0 20.0)
  end
  begin
     id 5 
     name ltoes
     direction 1.53483e-011 -4.21688e-011 1   
     length 0.851674   
     axis -90 7.62852e-016 20   XYZ
    dof rx
    limits (-90.0 20.0)
  end
  begin
     id 6 
     name rhipjoint
     direction -0.822466 -0.411836 0.392353   
     length 3.81764  
     axis 0 0 0  XYZ 
  end
  begin
     id 7 
     name rfemur
     direction -0.34202 -0.939693 0   
     length 6.28636   
     axis 0 0 -20   XYZ
    dof rx ry rz
    limits (-160.0 20.0)
           (-70.0 70.0)
           (-70.0 60.0)
  end
  begin
     id 8 
     name rtibia
     direction -0.34202 -0.939693 0   
     length 6.85621   
     axis 0 0 -20   XYZ
    dof rx
    limits (-10.0 170.0)
 end
 begin
     id 9 
     name rfoot
     direction -0.0553036 -0.151945 0.98684   
     length 1.57293  
     axis -90 -7.62852e-016 -20   XYZ
    dof rx rz
    limits (-45.0 90.0)
           (-20.0 70.0)
  end
  begin
     id 10 
     name rtoes
     direction -1.53592e-011 -4.21964e-011 1   
     length 0.802812   
     axis -90 -7.62852e-016 -20   XYZ
    dof rx
    limits (-90.0 20.0)
  end
  begin
     id 11 
     name lowerback
     direction 0.00654913 0.996475 -0.0836396   
     length 1.97212   
     axis 0 0 0   XYZ
    dof rx ry rz
    limits (-20.0 45.0)
           (-30.0 30.0)
           (-30.0 30.0)
  end
  begin
     id 12 
     name upperback
     direction 0.0111875 0.994527 0.103877   
     length 1.89704   
     axis 0 0 0   XYZ
    dof rx ry rz
    limits (-20.0 45.0)
           (-30.0 30.0)
           (-30.0 30.0)
  end
  begin
     id 13 
     name thorax
     direction 0.00473652 0.989004 0.147814   
     length 1.94516   
     axis 0 0 0   XYZ
    dof rx ry rz
    limits (-20.0 45.0)
           (-30.0 30.0)
           (-30.0 30.0)
  end
  begin
     id 14 
     name lowerneck
     direction -0.00925808 0.999011 0.0434791   
     length 1.81771   
     axis 0 0 0   XYZ
    dof rx ry rz
    limits (-20.0 45.0)
           (-30.0 30.0)
           (-30.0 30.0)
  end
  begin
     id 15 
     name upperneck
     direction 0.00451595 0.964412 -0.264365   
     length 1.80434   
     axis 0 0 0   XYZ
    dof rx ry rz
    limits (-20.0 45.0)
           (-30.0 30.0)
           (-30.0 30.0)
  end
  begin
     id 16
     name head
     direction -0.00110849 0.995756 -0.0920241  
     length 1.84006  
     axis 0 0 0   XYZ
    dof rx ry rz
    limits (-20.0 45.0)
           (-30.0 30.0)
           (-30.0 30.0)
  end
  begin
     id 17 
     name lclavicle
     direction 0.921253 0.385213 0.0538957  
     length 3.67415  
     axis 0 0 0   XYZ
    dof ry rz
    limits (-20.0 10.0)
           (0.0 20.0)
  end
  begin
     id 18 
     name lhumerus
     direction 1 -4.48961e-011 6.73441e-028   
     length 4.32712   
     axis 180 -30 -90   XYZ
    dof rx ry rz
    limits (-60.0 90.0)
           (-90.0 90.0)
           (-90.0 90.0)
  end
  begin
     id 19
     name lradius
     direction 1 -4.48985e-011 -9.53507e-028   
     length 3.28587   
     axis 180 -30 -90   XYZ
    dof rx
    limits (-10.0 170.0)
  end
  begin
     id 20
     name lwrist
     direction 1 -4.48951e-011 -4.67472e-027   
     length 1.64293   
     axis 1.65735e-015 90 90   XYZ
    dof ry
    limits (-180.0 0.0)
 end
  begin
     id 21 
     name lhand
     direction 1 -4.48946e-011 -9.34945e-027   
     length 0.433158   
     axis 5.96574e-015 90 90   XYZ
    dof rx rz
    limits (-90.0 90.0)
           (-45.0 45.0)
  end
  begin
     id 22 
     name lfingers
     direction 1 -4.48882e-011 -1.86989e-026   
     length 0.349224   
     axis 1.19315e-014 90 90   XYZ
    dof rx
    limits (0.0 90.0)
  end
  begin
     id 23
     name lthumb
     direction 0.707107 -6.3493e-011 0.707107   
     length 0.501417   
     axis -90 45 2.85299e-015   XYZ
    dof rx rz
    limits (-45.0 45.0)
           (-45.0 45.0)
  end
  begin
     id 24 
     name rclavicle
     direction -0.884378 0.46502 -0.0403866   
     length 3.50218  
     axis 0 0 0   XYZ 
    dof ry rz
    limits (-10.0 20.0)
           (-20.0 0.0)
  end
  begin
     id 25 
     name rhumerus
     direction -1 -4.48964e-011 1.58188e-027  
     length 4.29104   
     axis 180 30 90   XYZ
    dof rx ry rz
    limits (-90.0 60.0)
           (-90.0 90.0)
           (-90.0 90.0)
  end
  begin
     id 26 
     name rradius
     direction -1 -4.48978e-011 -1.9722e-027   
     length 3.2272   
     axis 180 30 90   XYZ
    dof rx
    limits (-10.0 170.0)
  end
  begin
     id 27 
     name rwrist
     direction -1 -4.48969e-011 -4.67472e-027   
     length 1.6136   
     axis 1.65735e-015 -90 -90   XYZ
    dof ry
    limits (-180.0 0.0)
  end
  begin
     id 28
     name rhand
     direction -1 -4.48846e-011 -9.34945e-027   
     length 0.543623   
     axis 5.96574e-015 -90 -90   XYZ
    dof rx rz
    limits (-90.0 90.0)
           (-45.0 45.0)
  end
  begin
     id 29
     name rfingers
     direction -1 -4.49074e-011 -1.86989e-026   
     length 0.438283   
     axis 1.19315e-014 -90 -90   XYZ
    dof rx
    limits (0.0 90.0)
  end
  begin
     id 30
     name rthumb
     direction -0.707107 -6.34834e-011 0.707107   
     length 0.629289   
     axis -90 -45 -2.85299e-015   XYZ
    dof rx rz
    limits (-45.0 45.0)
           (-45.0 45.0)
  end
:hierarchy
  begin
    root lhipjoint rhipjoint lowerback
    lhipjoint lfemur
    lfemur ltibia
    ltibia lfoot
    lfoot ltoes
    rhipjoint rfemur
    rfemur rtibia
    rtibia rfoot
    rfoot rtoes
    lowerback upperback
    upperback thorax
    thorax lowerneck lclavicle rclavicle
    lowerneck upperneck
    upperneck head
    lclavicle lhumerus
    lhumerus lradius
    lradius lwrist
    lwrist lhand lthumb
    lhand lfingers
    rclavicle rhumerus
    rhumerus rradius
    rradius rwrist
    rwrist rhand rthumb
    rhand rfingers
  end

#!OML:ASF H:\GeneralSubjects\Female5\Project 1\Capture day 1\Session 1\Female5.ASF
:FULLY-SPECIFIED
:DEGREES
35
root -37.6153 16.3136 5.50509 -119.835 85.4708 -134.233
lowerback 5.96665 2.75138 5.6213
upperback -9.44686 4.61425 -1.14249
thorax -13.1609 1.68443 -5.20288
lowerneck -16.1553 7.03514 12.2094
upperneck 41.4641 10.7746 -3.23503
head 19.7102 6.51617 -1.15115
rclavicle 2.49102e-014 -7.55382e-015
rhumerus -45.8055 12.7446 -87.2293
rradius 33.1599
rwrist -4.92017
rhand -20.7876 -20.6026
rfingers 7.12502
rthumb 5.5794 -50.5091
lclavicle 2.49102e-014 -7.55382e-015
lhumerus -46.9293 -3.96394 74.7038
lradius 37.8664
lwrist -2.83916
lhand -23.8056 31.4545
lfingers 7.12502
lthumb 2.66509 61.4176
rfemur 0.622234 23.0879 36.0421
rtibia -12.9123
rfoot 9.60074 -29.2101
rtoes -57.2737
lfemur -5.61393 -32.8458 -22.6374
ltibia -3.55609
lfoot -32.741 0.70121
ltoes -14.2884
36
root -37.5916 16.3152 5.50552 -117.95 85.6427 -132.631
lowerback 6.0669 2.74633 5.62956
upperback -9.42715 4.60696 -1.1785
thorax -13.1977 1.67461 -5.2528
lowerneck -16.0322 6.8475 11.8794
upperneck 41.4752 10.5078 -3.02071
head 19.5935 6.39287 -1.06214
rclavicle -1.31136e-014 1.88845e-014
rhumerus -46.1898 12.1728 -86.9482
rradius 33.2434
rwrist -4.81538
rhand -20.8966 -19.9639
rfingers 7.12502
rthumb 5.4742 -49.8732
lclavicle -1.31136e-014 1.88845e-014
lhumerus -47.3886 -3.82548 74.1837
lradius 37.7814
lwrist -3.37516
lhand -24.2114 30.8232
lfingers 7.12502
lthumb 2.27317 60.7909
rfemur 0.363302 23.3541 35.8861
rtibia -12.816
rfoot 9.92972 -29.1252
rtoes -57.5372
lfemur -5.8762 -32.8931 -22.5516
ltibia -3.45378
lfoot -32.9986 0.765408
ltoes -14.56
37
root -37.5668 16.3176 5.50495 -116.046 85.832 -131.025
lowerback 6.18047 2.72743 5.61497
upperback -9.38819 4.57698 -1.20954
thorax -13.2247 1.65675 -5.2808
lowerneck -15.9667 6.66441 11.565
upperneck 41.4663 10.2351 -2.8346
head 19.487 6.26108 -0.988648
rclavicle -2.81964e-014 2.78299e-015
rhumerus -46.6715 11.6102 -86.6359
rradius 33.3744
rwrist -4.74384
rhand -21.1757 -19.1614
rfingers 7.12502
rthumb 5.20471 -49.0775
lclavicle -2.81964e-014 2.78299e-015
lhumerus -47.9577 -3.76637 73.6419
lradius 37.6084
lwrist -4.11429
lhand -24.5906 30.0062
lfingers 7.12502
lthumb 1.90698 59.9774
rfemur 0.0711539 23.6199 35.6797
rtibia -12.6905
rfoot 10.2202 -29.0497
rtoes -57.8112
lfemur -6.17344 -32.9163 -22.4878
ltibia -3.32165
lfoot -33.231 0.81907
ltoes -14.8549
38
root -37.541 16.3207 5.50359 -114.022 86.0254 -129.318
lowerback 6.30784 2.68991 5.58156
upperback -9.3372 4.52086 -1.22118
thorax -13.2522 1.62932 -5.2731
lowerneck -15.9514 6.49067 11.2552
upperneck 41.4523 9.97542 -2.67725
head 19.3988 6.12767 -0.924617
rclavicle 1.38e-014 8.34896e-015
rhumerus -47.2793 11.0929 -86.3032
rradius 33.5604
rwrist -4.68245
rhand -21.5848 -18.2053
rfingers 7.12502
rthumb 4.80965 -48.1307
lclavicle 1.38e-014 8.34896e-015
lhumerus -48.6678 -3.79109 73.084
lradius 37.3102
lwrist -5.04983
lhand -24.923 29.081
lfingers 7.12502
lthumb 1.58596 59.0548
rfemur -0.255213 23.8848 35.4391
rtibia -12.5428
rfoot 10.5154 -28.9723
rtoes -58.1201
lfemur -6.49803 -32.9501 -22.4237
ltibia -3.18043
lfoot -33.4674 0.827034
ltoes -15.101
39
root -37.5133 16.3243 5.50154 -111.877 86.2231 -127.511
lowerback 6.45719 2.64457 5.57018
upperback -9.2859 4.45681 -1.24363
thorax -13.292 1.5944 -5.28992
lowerneck -15.9949 6.31909 10.9423
upperneck 41.4484 9.70814 -2.51441
head 19.3344 5.98899 -0.856028
rclavicle -1.19581e-014 -1.25234e-014
rhumerus -48.0492 10.5762 -85.9786
rradius 33.7883
rwrist -4.63233
rhand -22.0245 -17.2268
rfingers 7.12502
rthumb 4.38511 -47.1614
lclavicle -1.19581e-014 -1.25234e-014
lhumerus -49.525 -3.96513 72.4892
lradius 36.8625
lwrist -6.11973
lhand -25.1801 28.0364
lfingers 7.12502
lthumb 1.33764 58.0119
rfemur -0.616017 24.148 35.1631
rtibia -12.3763
rfoot 10.8076 -28.906
rtoes -58.4832
lfemur -6.82283 -33.0381 -22.3631
ltibia -3.0734
lfoot -33.7373 0.91178
ltoes -15.4933
